<mxfile host="65bd71144e">
    <diagram id="bzYDor7Mf7Ch-uxfBpj_" name="Page-1">
        <mxGraphModel dx="646" dy="783" grid="1" gridSize="10" guides="1" tooltips="1" connect="1" arrows="1" fold="1" page="1" pageScale="1" pageWidth="827" pageHeight="1169" math="0" shadow="0">
            <root>
                <mxCell id="0"/>
                <mxCell id="1" parent="0"/>
                <mxCell id="Pn8fTQrSeP5vRvdxLiqo-7" style="edgeStyle=orthogonalEdgeStyle;rounded=0;orthogonalLoop=1;jettySize=auto;html=1;entryX=0.632;entryY=-0.075;entryDx=0;entryDy=0;entryPerimeter=0;" parent="1" source="Pn8fTQrSeP5vRvdxLiqo-1" target="Pn8fTQrSeP5vRvdxLiqo-5" edge="1">
                    <mxGeometry relative="1" as="geometry">
                        <Array as="points">
                            <mxPoint x="442" y="165"/>
                        </Array>
                    </mxGeometry>
                </mxCell>
                <mxCell id="Pn8fTQrSeP5vRvdxLiqo-9" style="edgeStyle=orthogonalEdgeStyle;rounded=0;orthogonalLoop=1;jettySize=auto;html=1;entryX=0.414;entryY=0;entryDx=0;entryDy=0;entryPerimeter=0;" parent="1" source="Pn8fTQrSeP5vRvdxLiqo-1" target="Pn8fTQrSeP5vRvdxLiqo-4" edge="1">
                    <mxGeometry relative="1" as="geometry">
                        <mxPoint x="124" y="200" as="targetPoint"/>
                        <Array as="points">
                            <mxPoint x="176" y="165"/>
                        </Array>
                    </mxGeometry>
                </mxCell>
                <mxCell id="Pn8fTQrSeP5vRvdxLiqo-1" value="Height &amp;gt; 120cm?" style="rhombus;whiteSpace=wrap;html=1;" parent="1" vertex="1">
                    <mxGeometry x="227" y="120" width="160" height="90" as="geometry"/>
                </mxCell>
                <mxCell id="Pn8fTQrSeP5vRvdxLiqo-3" style="edgeStyle=orthogonalEdgeStyle;rounded=0;orthogonalLoop=1;jettySize=auto;html=1;" parent="1" source="Pn8fTQrSeP5vRvdxLiqo-2" target="Pn8fTQrSeP5vRvdxLiqo-1" edge="1">
                    <mxGeometry relative="1" as="geometry"/>
                </mxCell>
                <mxCell id="Pn8fTQrSeP5vRvdxLiqo-2" value="&lt;font color=&quot;#000000&quot;&gt;Start&lt;/font&gt;" style="rounded=1;whiteSpace=wrap;html=1;fillColor=#d5e8d4;strokeColor=#82b366;" parent="1" vertex="1">
                    <mxGeometry x="247" y="30" width="120" height="40" as="geometry"/>
                </mxCell>
                <mxCell id="Pn8fTQrSeP5vRvdxLiqo-4" value="Can't ride" style="rounded=1;whiteSpace=wrap;html=1;" parent="1" vertex="1">
                    <mxGeometry x="140" y="220" width="87" height="40" as="geometry"/>
                </mxCell>
                <mxCell id="DJ92_PNdtjdrQYHPgFHg-2" style="edgeStyle=orthogonalEdgeStyle;rounded=0;orthogonalLoop=1;jettySize=auto;html=1;" parent="1" source="Pn8fTQrSeP5vRvdxLiqo-5" target="DJ92_PNdtjdrQYHPgFHg-1" edge="1">
                    <mxGeometry relative="1" as="geometry"/>
                </mxCell>
                <mxCell id="Pn8fTQrSeP5vRvdxLiqo-5" value="Can ride" style="rounded=1;whiteSpace=wrap;html=1;" parent="1" vertex="1">
                    <mxGeometry x="387" y="220" width="87" height="40" as="geometry"/>
                </mxCell>
                <mxCell id="Pn8fTQrSeP5vRvdxLiqo-10" value="No" style="text;html=1;align=center;verticalAlign=middle;resizable=0;points=[];autosize=1;" parent="1" vertex="1">
                    <mxGeometry x="197" y="149" width="30" height="20" as="geometry"/>
                </mxCell>
                <mxCell id="Pn8fTQrSeP5vRvdxLiqo-11" value="Yes" style="text;html=1;align=center;verticalAlign=middle;resizable=0;points=[];autosize=1;" parent="1" vertex="1">
                    <mxGeometry x="394" y="149" width="40" height="20" as="geometry"/>
                </mxCell>
                <mxCell id="DJ92_PNdtjdrQYHPgFHg-4" value="" style="edgeStyle=orthogonalEdgeStyle;rounded=0;orthogonalLoop=1;jettySize=auto;html=1;entryX=0.5;entryY=0;entryDx=0;entryDy=0;" parent="1" source="DJ92_PNdtjdrQYHPgFHg-1" target="DJ92_PNdtjdrQYHPgFHg-6" edge="1">
                    <mxGeometry relative="1" as="geometry">
                        <mxPoint x="310.5" y="335" as="targetPoint"/>
                    </mxGeometry>
                </mxCell>
                <mxCell id="DJ92_PNdtjdrQYHPgFHg-12" style="edgeStyle=orthogonalEdgeStyle;rounded=0;orthogonalLoop=1;jettySize=auto;html=1;entryX=0.5;entryY=0;entryDx=0;entryDy=0;" parent="1" source="DJ92_PNdtjdrQYHPgFHg-1" target="DJ92_PNdtjdrQYHPgFHg-9" edge="1">
                    <mxGeometry relative="1" as="geometry"/>
                </mxCell>
                <mxCell id="iFqjR4uTbTjRD1kRuNJs-2" style="edgeStyle=orthogonalEdgeStyle;rounded=0;orthogonalLoop=1;jettySize=auto;html=1;exitX=0.5;exitY=1;exitDx=0;exitDy=0;entryX=0.5;entryY=0;entryDx=0;entryDy=0;" parent="1" source="DJ92_PNdtjdrQYHPgFHg-1" target="iFqjR4uTbTjRD1kRuNJs-1" edge="1">
                    <mxGeometry relative="1" as="geometry"/>
                </mxCell>
                <mxCell id="iFqjR4uTbTjRD1kRuNJs-3" value="" style="edgeStyle=orthogonalEdgeStyle;rounded=0;orthogonalLoop=1;jettySize=auto;html=1;" parent="1" source="DJ92_PNdtjdrQYHPgFHg-1" target="iFqjR4uTbTjRD1kRuNJs-1" edge="1">
                    <mxGeometry relative="1" as="geometry"/>
                </mxCell>
                <mxCell id="DJ92_PNdtjdrQYHPgFHg-1" value="age" style="rhombus;whiteSpace=wrap;html=1;" parent="1" vertex="1">
                    <mxGeometry x="390.5" y="310" width="80" height="50" as="geometry"/>
                </mxCell>
                <mxCell id="4" style="edgeStyle=none;html=1;entryX=0;entryY=0;entryDx=0;entryDy=0;" parent="1" source="DJ92_PNdtjdrQYHPgFHg-6" target="3" edge="1">
                    <mxGeometry relative="1" as="geometry">
                        <Array as="points">
                            <mxPoint x="242" y="570"/>
                        </Array>
                    </mxGeometry>
                </mxCell>
                <mxCell id="DJ92_PNdtjdrQYHPgFHg-6" value="$5" style="rounded=1;whiteSpace=wrap;html=1;" parent="1" vertex="1">
                    <mxGeometry x="197" y="450" width="90" height="40" as="geometry"/>
                </mxCell>
                <mxCell id="DJ92_PNdtjdrQYHPgFHg-7" value="under 12" style="text;html=1;align=center;verticalAlign=middle;resizable=0;points=[];autosize=1;" parent="1" vertex="1">
                    <mxGeometry x="305" y="305" width="70" height="30" as="geometry"/>
                </mxCell>
                <mxCell id="8" style="edgeStyle=none;html=1;exitX=0.25;exitY=1;exitDx=0;exitDy=0;" parent="1" source="DJ92_PNdtjdrQYHPgFHg-9" target="3" edge="1">
                    <mxGeometry relative="1" as="geometry">
                        <mxPoint x="434" y="570" as="targetPoint"/>
                        <Array as="points">
                            <mxPoint x="590" y="570"/>
                        </Array>
                    </mxGeometry>
                </mxCell>
                <mxCell id="DJ92_PNdtjdrQYHPgFHg-9" value="$12" style="rounded=1;whiteSpace=wrap;html=1;" parent="1" vertex="1">
                    <mxGeometry x="567" y="450" width="90" height="40" as="geometry"/>
                </mxCell>
                <mxCell id="DJ92_PNdtjdrQYHPgFHg-13" value="Over 18" style="text;html=1;align=center;verticalAlign=middle;resizable=0;points=[];autosize=1;" parent="1" vertex="1">
                    <mxGeometry x="505" y="310" width="60" height="20" as="geometry"/>
                </mxCell>
                <mxCell id="5" style="edgeStyle=none;html=1;exitX=0.5;exitY=1;exitDx=0;exitDy=0;entryX=0.5;entryY=0;entryDx=0;entryDy=0;" parent="1" source="iFqjR4uTbTjRD1kRuNJs-1" target="3" edge="1">
                    <mxGeometry relative="1" as="geometry"/>
                </mxCell>
                <mxCell id="iFqjR4uTbTjRD1kRuNJs-1" value="$7" style="rounded=1;whiteSpace=wrap;html=1;" parent="1" vertex="1">
                    <mxGeometry x="385.5" y="450" width="90" height="40" as="geometry"/>
                </mxCell>
                <mxCell id="iFqjR4uTbTjRD1kRuNJs-4" value="&amp;nbsp;12 to 18" style="text;html=1;align=center;verticalAlign=middle;resizable=0;points=[];autosize=1;strokeColor=none;fillColor=none;" parent="1" vertex="1">
                    <mxGeometry x="420" y="360" width="70" height="30" as="geometry"/>
                </mxCell>
                <mxCell id="18" style="edgeStyle=none;html=1;exitX=0.5;exitY=1;exitDx=0;exitDy=0;entryX=0.551;entryY=0.333;entryDx=0;entryDy=0;entryPerimeter=0;" parent="1" source="3" target="13" edge="1">
                    <mxGeometry relative="1" as="geometry">
                        <mxPoint x="434" y="740" as="targetPoint"/>
                    </mxGeometry>
                </mxCell>
                <mxCell id="19" value="No" style="edgeLabel;html=1;align=center;verticalAlign=middle;resizable=0;points=[];" parent="18" vertex="1" connectable="0">
                    <mxGeometry x="-0.3994" y="1" relative="1" as="geometry">
                        <mxPoint as="offset"/>
                    </mxGeometry>
                </mxCell>
                <mxCell id="22" style="edgeStyle=none;html=1;entryX=0.5;entryY=0;entryDx=0;entryDy=0;" parent="1" source="3" target="12" edge="1">
                    <mxGeometry relative="1" as="geometry">
                        <mxPoint x="593" y="670" as="targetPoint"/>
                        <Array as="points">
                            <mxPoint x="587" y="670"/>
                        </Array>
                    </mxGeometry>
                </mxCell>
                <mxCell id="3" value="want a&amp;nbsp;&lt;br&gt;photo" style="rhombus;whiteSpace=wrap;html=1;" parent="1" vertex="1">
                    <mxGeometry x="393.5" y="630" width="80" height="80" as="geometry"/>
                </mxCell>
                <mxCell id="24" style="edgeStyle=none;html=1;exitX=0.5;exitY=1;exitDx=0;exitDy=0;entryX=1;entryY=0.75;entryDx=0;entryDy=0;" parent="1" source="12" target="13" edge="1">
                    <mxGeometry relative="1" as="geometry">
                        <mxPoint x="587" y="870" as="targetPoint"/>
                        <Array as="points">
                            <mxPoint x="587" y="870"/>
                        </Array>
                    </mxGeometry>
                </mxCell>
                <mxCell id="12" value="Add $3&amp;nbsp;&lt;br&gt;" style="rounded=1;whiteSpace=wrap;html=1;fontFamily=Helvetica;fontSize=12;fontColor=default;align=center;strokeColor=default;fillColor=default;" parent="1" vertex="1">
                    <mxGeometry x="543" y="760" width="88" height="30" as="geometry"/>
                </mxCell>
                <mxCell id="13" value="Total Bill" style="shape=parallelogram;perimeter=parallelogramPerimeter;whiteSpace=wrap;html=1;fixedSize=1;" parent="1" vertex="1">
                    <mxGeometry x="385.5" y="850" width="88" height="30" as="geometry"/>
                </mxCell>
                <mxCell id="26" style="edgeStyle=none;html=1;entryX=0.5;entryY=0;entryDx=0;entryDy=0;" edge="1" parent="1" target="25">
                    <mxGeometry relative="1" as="geometry">
                        <mxPoint x="745" y="334" as="targetPoint"/>
                        <mxPoint x="610" y="334" as="sourcePoint"/>
                        <Array as="points">
                            <mxPoint x="825" y="330"/>
                        </Array>
                    </mxGeometry>
                </mxCell>
                <mxCell id="25" value="$0" style="rounded=1;whiteSpace=wrap;html=1;" vertex="1" parent="1">
                    <mxGeometry x="780" y="455" width="90" height="30" as="geometry"/>
                </mxCell>
                <mxCell id="27" value="between 44-55" style="text;html=1;align=center;verticalAlign=middle;resizable=0;points=[];autosize=1;strokeColor=none;fillColor=none;" vertex="1" parent="1">
                    <mxGeometry x="660" y="305" width="100" height="30" as="geometry"/>
                </mxCell>
            </root>
        </mxGraphModel>
    </diagram>
</mxfile>